<svg xmlns="http://www.w3.org/2000/svg" viewBox="0 0 80 56" width="80" height="56">
  <defs>
    <linearGradient id="body" x1="0" y1="0" x2="0" y2="1">
      <stop offset="0" stop-color="#FFD84D"/>
      <stop offset="1" stop-color="#FABE00"/>
    </linearGradient>
  </defs>
  <!-- shadow -->
  <ellipse cx="40" cy="49" rx="27" ry="4" fill="#000" opacity=".14"/>
  <!-- body -->
  <path d="M9 38
           C7 38 6 36 6 34
           L6 31
           C6 28 8 26 12 25
           L22 24
           L31 16
           C34 13.5 37 13 41 13
           L50 13
           C55 13 59 15 62 19
           L67 25
           L70 26
           C73 27 75 29 75 32
           L75 34
           C75 36 74 38 71 38
           Z" fill="url(#body)" stroke="#E0A800" stroke-width="1.5"/>
  <!-- windows -->
  <path d="M33 23 L37 17 C38.5 15.5 40 15 43 15 L48 15 L48 23 Z" fill="#2b3440" opacity=".92"/>
  <path d="M50 23 L50 15 L51 15 C54 15 57 16.5 59 19.5 L61.5 23 Z" fill="#2b3440" opacity=".92"/>
  <!-- headlight -->
  <circle cx="72" cy="31" r="2.2" fill="#fff"/>
  <!-- door line -->
  <line x1="49" y1="24" x2="49" y2="36" stroke="#E0A800" stroke-width="1.3"/>
  <!-- wheels -->
  <g>
    <circle cx="24" cy="38" r="8.5" fill="#1a1a1a"/>
    <circle cx="24" cy="38" r="3.4" fill="#e9eef3"/>
    <circle cx="58" cy="38" r="8.5" fill="#1a1a1a"/>
    <circle cx="58" cy="38" r="3.4" fill="#e9eef3"/>
  </g>
</svg>
